<mxfile host="app.diagrams.net" modified="2024-04-06T15:46:29.495Z" agent="Mozilla/5.0 (Macintosh; Intel Mac OS X 10_15_7) AppleWebKit/537.36 (KHTML, like Gecko) Chrome/123.0.0.0 Safari/537.36" etag="DDCb7t6qIIlR1MZSTuTk" version="24.2.2" type="device">
  <diagram name="PÃ¡gina-1" id="7X7vlwpZ5STw-DthOShD">
    <mxGraphModel dx="2411" dy="819" grid="1" gridSize="10" guides="1" tooltips="1" connect="1" arrows="1" fold="1" page="1" pageScale="1" pageWidth="1169" pageHeight="827" math="0" shadow="0">
      <root>
        <mxCell id="0" />
        <mxCell id="1" parent="0" />
        <mxCell id="yxUs6iewgmaAqQAanhQ5-1" value="Audiovisual&lt;div&gt;&lt;div&gt;Content&lt;/div&gt;&lt;/div&gt;" style="rounded=0;whiteSpace=wrap;html=1;" parent="1" vertex="1">
          <mxGeometry x="469" y="145" width="120" height="60" as="geometry" />
        </mxCell>
        <mxCell id="yxUs6iewgmaAqQAanhQ5-2" value="Title" style="ellipse;whiteSpace=wrap;html=1;" parent="1" vertex="1">
          <mxGeometry x="467" y="17.5" width="55" height="30" as="geometry" />
        </mxCell>
        <mxCell id="yxUs6iewgmaAqQAanhQ5-3" value="Synopsis" style="ellipse;whiteSpace=wrap;html=1;" parent="1" vertex="1">
          <mxGeometry x="307" y="125" width="70" height="30" as="geometry" />
        </mxCell>
        <mxCell id="yxUs6iewgmaAqQAanhQ5-4" value="Budget" style="ellipse;whiteSpace=wrap;html=1;" parent="1" vertex="1">
          <mxGeometry x="337" y="47.5" width="60" height="30" as="geometry" />
        </mxCell>
        <mxCell id="yxUs6iewgmaAqQAanhQ5-5" value="&lt;u&gt;Trailer_URL&lt;/u&gt;" style="ellipse;whiteSpace=wrap;html=1;" parent="1" vertex="1">
          <mxGeometry x="302" y="85" width="80" height="30" as="geometry" />
        </mxCell>
        <mxCell id="yxUs6iewgmaAqQAanhQ5-6" value="&lt;u&gt;Identifier&lt;/u&gt;" style="ellipse;whiteSpace=wrap;html=1;" parent="1" vertex="1">
          <mxGeometry x="324.5" y="205" width="70" height="30" as="geometry" />
        </mxCell>
        <mxCell id="yxUs6iewgmaAqQAanhQ5-7" value="Popularity" style="ellipse;whiteSpace=wrap;html=1;" parent="1" vertex="1">
          <mxGeometry x="307" y="165" width="80" height="30" as="geometry" />
        </mxCell>
        <mxCell id="yxUs6iewgmaAqQAanhQ5-8" value="Revenue" style="ellipse;whiteSpace=wrap;html=1;" parent="1" vertex="1">
          <mxGeometry x="392" y="25" width="70" height="30" as="geometry" />
        </mxCell>
        <mxCell id="yxUs6iewgmaAqQAanhQ5-9" value="Photo" style="ellipse;whiteSpace=wrap;html=1;" parent="1" vertex="1">
          <mxGeometry x="529" y="25" width="50" height="25" as="geometry" />
        </mxCell>
        <mxCell id="yxUs6iewgmaAqQAanhQ5-10" value="Age Rate" style="ellipse;whiteSpace=wrap;html=1;" parent="1" vertex="1">
          <mxGeometry x="579" y="47.5" width="65" height="25" as="geometry" />
        </mxCell>
        <mxCell id="yxUs6iewgmaAqQAanhQ5-11" value="Release date" style="ellipse;whiteSpace=wrap;html=1;" parent="1" vertex="1">
          <mxGeometry x="629" y="80" width="90" height="35" as="geometry" />
        </mxCell>
        <mxCell id="yxUs6iewgmaAqQAanhQ5-58" style="edgeStyle=orthogonalEdgeStyle;rounded=0;orthogonalLoop=1;jettySize=auto;html=1;entryX=0.5;entryY=1;entryDx=0;entryDy=0;endArrow=none;endFill=0;" parent="1" source="yxUs6iewgmaAqQAanhQ5-12" target="yxUs6iewgmaAqQAanhQ5-15" edge="1">
          <mxGeometry relative="1" as="geometry" />
        </mxCell>
        <mxCell id="yxUs6iewgmaAqQAanhQ5-12" value="Runtime" style="ellipse;whiteSpace=wrap;html=1;" parent="1" vertex="1">
          <mxGeometry x="419" y="415" width="60" height="30" as="geometry" />
        </mxCell>
        <mxCell id="yxUs6iewgmaAqQAanhQ5-13" value="Season" style="rounded=0;whiteSpace=wrap;html=1;" parent="1" vertex="1">
          <mxGeometry x="564" y="519.75" width="80" height="40" as="geometry" />
        </mxCell>
        <mxCell id="yxUs6iewgmaAqQAanhQ5-128" style="edgeStyle=orthogonalEdgeStyle;rounded=0;orthogonalLoop=1;jettySize=auto;html=1;entryX=0.5;entryY=1;entryDx=0;entryDy=0;shape=link;" parent="1" source="yxUs6iewgmaAqQAanhQ5-14" target="yxUs6iewgmaAqQAanhQ5-126" edge="1">
          <mxGeometry relative="1" as="geometry" />
        </mxCell>
        <mxCell id="yxUs6iewgmaAqQAanhQ5-14" value="Episode" style="rounded=0;whiteSpace=wrap;html=1;" parent="1" vertex="1">
          <mxGeometry x="564" y="705" width="80" height="40" as="geometry" />
        </mxCell>
        <mxCell id="yxUs6iewgmaAqQAanhQ5-15" value="Movie" style="rounded=0;whiteSpace=wrap;html=1;" parent="1" vertex="1">
          <mxGeometry x="409" y="345" width="80" height="40" as="geometry" />
        </mxCell>
        <mxCell id="yxUs6iewgmaAqQAanhQ5-118" style="edgeStyle=orthogonalEdgeStyle;rounded=0;orthogonalLoop=1;jettySize=auto;html=1;entryX=0.5;entryY=0;entryDx=0;entryDy=0;endArrow=none;endFill=0;shape=link;" parent="1" source="yxUs6iewgmaAqQAanhQ5-16" target="yxUs6iewgmaAqQAanhQ5-117" edge="1">
          <mxGeometry relative="1" as="geometry" />
        </mxCell>
        <mxCell id="yxUs6iewgmaAqQAanhQ5-16" value="TV Series" style="rounded=0;whiteSpace=wrap;html=1;" parent="1" vertex="1">
          <mxGeometry x="564" y="345" width="80" height="40" as="geometry" />
        </mxCell>
        <mxCell id="yxUs6iewgmaAqQAanhQ5-17" value="" style="endArrow=none;html=1;rounded=0;exitX=1;exitY=0.5;exitDx=0;exitDy=0;entryX=0;entryY=1;entryDx=0;entryDy=0;" parent="1" source="yxUs6iewgmaAqQAanhQ5-6" target="yxUs6iewgmaAqQAanhQ5-1" edge="1">
          <mxGeometry width="50" height="50" relative="1" as="geometry">
            <mxPoint x="399" y="265" as="sourcePoint" />
            <mxPoint x="449" y="215" as="targetPoint" />
          </mxGeometry>
        </mxCell>
        <mxCell id="yxUs6iewgmaAqQAanhQ5-18" value="" style="endArrow=none;html=1;rounded=0;exitX=1;exitY=0.5;exitDx=0;exitDy=0;entryX=0;entryY=0.75;entryDx=0;entryDy=0;" parent="1" source="yxUs6iewgmaAqQAanhQ5-7" target="yxUs6iewgmaAqQAanhQ5-1" edge="1">
          <mxGeometry width="50" height="50" relative="1" as="geometry">
            <mxPoint x="405" y="230" as="sourcePoint" />
            <mxPoint x="477" y="215" as="targetPoint" />
          </mxGeometry>
        </mxCell>
        <mxCell id="yxUs6iewgmaAqQAanhQ5-19" value="" style="endArrow=none;html=1;rounded=0;exitX=1;exitY=0.5;exitDx=0;exitDy=0;entryX=0;entryY=0.5;entryDx=0;entryDy=0;" parent="1" source="yxUs6iewgmaAqQAanhQ5-3" target="yxUs6iewgmaAqQAanhQ5-1" edge="1">
          <mxGeometry width="50" height="50" relative="1" as="geometry">
            <mxPoint x="397" y="190" as="sourcePoint" />
            <mxPoint x="477" y="200" as="targetPoint" />
          </mxGeometry>
        </mxCell>
        <mxCell id="yxUs6iewgmaAqQAanhQ5-20" value="" style="endArrow=none;html=1;rounded=0;exitX=1;exitY=0.5;exitDx=0;exitDy=0;entryX=0;entryY=0.25;entryDx=0;entryDy=0;" parent="1" source="yxUs6iewgmaAqQAanhQ5-5" target="yxUs6iewgmaAqQAanhQ5-1" edge="1">
          <mxGeometry width="50" height="50" relative="1" as="geometry">
            <mxPoint x="387" y="150" as="sourcePoint" />
            <mxPoint x="477" y="185" as="targetPoint" />
          </mxGeometry>
        </mxCell>
        <mxCell id="yxUs6iewgmaAqQAanhQ5-21" value="" style="endArrow=none;html=1;rounded=0;exitX=1;exitY=0.5;exitDx=0;exitDy=0;entryX=0;entryY=0;entryDx=0;entryDy=0;" parent="1" source="yxUs6iewgmaAqQAanhQ5-4" target="yxUs6iewgmaAqQAanhQ5-1" edge="1">
          <mxGeometry width="50" height="50" relative="1" as="geometry">
            <mxPoint x="392" y="110" as="sourcePoint" />
            <mxPoint x="477" y="170" as="targetPoint" />
          </mxGeometry>
        </mxCell>
        <mxCell id="yxUs6iewgmaAqQAanhQ5-22" value="" style="endArrow=none;html=1;rounded=0;exitX=0.5;exitY=1;exitDx=0;exitDy=0;entryX=0.25;entryY=0;entryDx=0;entryDy=0;" parent="1" source="yxUs6iewgmaAqQAanhQ5-8" target="yxUs6iewgmaAqQAanhQ5-1" edge="1">
          <mxGeometry width="50" height="50" relative="1" as="geometry">
            <mxPoint x="407" y="73" as="sourcePoint" />
            <mxPoint x="477" y="155" as="targetPoint" />
          </mxGeometry>
        </mxCell>
        <mxCell id="yxUs6iewgmaAqQAanhQ5-23" value="" style="endArrow=none;html=1;rounded=0;exitX=0.5;exitY=1;exitDx=0;exitDy=0;entryX=0.5;entryY=0;entryDx=0;entryDy=0;" parent="1" source="yxUs6iewgmaAqQAanhQ5-2" target="yxUs6iewgmaAqQAanhQ5-1" edge="1">
          <mxGeometry width="50" height="50" relative="1" as="geometry">
            <mxPoint x="437" y="65" as="sourcePoint" />
            <mxPoint x="507" y="155" as="targetPoint" />
          </mxGeometry>
        </mxCell>
        <mxCell id="yxUs6iewgmaAqQAanhQ5-24" value="" style="endArrow=none;html=1;rounded=0;exitX=0.5;exitY=1;exitDx=0;exitDy=0;entryX=0.75;entryY=0;entryDx=0;entryDy=0;" parent="1" source="yxUs6iewgmaAqQAanhQ5-9" target="yxUs6iewgmaAqQAanhQ5-1" edge="1">
          <mxGeometry width="50" height="50" relative="1" as="geometry">
            <mxPoint x="505" y="58" as="sourcePoint" />
            <mxPoint x="537" y="155" as="targetPoint" />
          </mxGeometry>
        </mxCell>
        <mxCell id="yxUs6iewgmaAqQAanhQ5-25" value="" style="endArrow=none;html=1;rounded=0;exitX=0.5;exitY=1;exitDx=0;exitDy=0;entryX=1;entryY=0;entryDx=0;entryDy=0;" parent="1" source="yxUs6iewgmaAqQAanhQ5-10" target="yxUs6iewgmaAqQAanhQ5-1" edge="1">
          <mxGeometry width="50" height="50" relative="1" as="geometry">
            <mxPoint x="564" y="60" as="sourcePoint" />
            <mxPoint x="567" y="155" as="targetPoint" />
          </mxGeometry>
        </mxCell>
        <mxCell id="yxUs6iewgmaAqQAanhQ5-26" value="" style="endArrow=none;html=1;rounded=0;exitX=0.5;exitY=1;exitDx=0;exitDy=0;entryX=1;entryY=0.25;entryDx=0;entryDy=0;" parent="1" source="yxUs6iewgmaAqQAanhQ5-11" target="yxUs6iewgmaAqQAanhQ5-1" edge="1">
          <mxGeometry width="50" height="50" relative="1" as="geometry">
            <mxPoint x="622" y="83" as="sourcePoint" />
            <mxPoint x="597" y="155" as="targetPoint" />
          </mxGeometry>
        </mxCell>
        <mxCell id="yxUs6iewgmaAqQAanhQ5-28" style="edgeStyle=orthogonalEdgeStyle;rounded=0;orthogonalLoop=1;jettySize=auto;html=1;entryX=0.5;entryY=1;entryDx=0;entryDy=0;endArrow=none;endFill=0;" parent="1" source="yxUs6iewgmaAqQAanhQ5-27" target="yxUs6iewgmaAqQAanhQ5-1" edge="1">
          <mxGeometry relative="1" as="geometry" />
        </mxCell>
        <mxCell id="yxUs6iewgmaAqQAanhQ5-27" value="IS A" style="triangle;whiteSpace=wrap;html=1;rotation=-90;" parent="1" vertex="1">
          <mxGeometry x="504.5" y="245.5" width="49" height="50" as="geometry" />
        </mxCell>
        <mxCell id="yxUs6iewgmaAqQAanhQ5-32" value="" style="endArrow=none;html=1;rounded=0;exitX=0.5;exitY=0;exitDx=0;exitDy=0;entryX=0;entryY=0.5;entryDx=0;entryDy=0;" parent="1" source="yxUs6iewgmaAqQAanhQ5-15" target="yxUs6iewgmaAqQAanhQ5-27" edge="1">
          <mxGeometry width="50" height="50" relative="1" as="geometry">
            <mxPoint x="749" y="295" as="sourcePoint" />
            <mxPoint x="799" y="245" as="targetPoint" />
            <Array as="points">
              <mxPoint x="449" y="325" />
              <mxPoint x="529" y="325" />
            </Array>
          </mxGeometry>
        </mxCell>
        <mxCell id="yxUs6iewgmaAqQAanhQ5-33" value="" style="endArrow=none;html=1;rounded=0;entryX=0.5;entryY=0;entryDx=0;entryDy=0;" parent="1" target="yxUs6iewgmaAqQAanhQ5-16" edge="1">
          <mxGeometry width="50" height="50" relative="1" as="geometry">
            <mxPoint x="529" y="325" as="sourcePoint" />
            <mxPoint x="609" y="325" as="targetPoint" />
            <Array as="points">
              <mxPoint x="604" y="325" />
            </Array>
          </mxGeometry>
        </mxCell>
        <mxCell id="yxUs6iewgmaAqQAanhQ5-35" value="Runtime" style="ellipse;whiteSpace=wrap;html=1;" parent="1" vertex="1">
          <mxGeometry x="689" y="677" width="60" height="30" as="geometry" />
        </mxCell>
        <mxCell id="yxUs6iewgmaAqQAanhQ5-36" value="&lt;u&gt;Trailer_URL&lt;/u&gt;" style="ellipse;whiteSpace=wrap;html=1;" parent="1" vertex="1">
          <mxGeometry x="674" y="489.75" width="80" height="30" as="geometry" />
        </mxCell>
        <mxCell id="yxUs6iewgmaAqQAanhQ5-37" value="Number" style="ellipse;whiteSpace=wrap;html=1;" parent="1" vertex="1">
          <mxGeometry x="469" y="489.75" width="80" height="30" as="geometry" />
        </mxCell>
        <mxCell id="yxUs6iewgmaAqQAanhQ5-38" value="Genre" style="rounded=0;whiteSpace=wrap;html=1;" parent="1" vertex="1">
          <mxGeometry x="814" y="95" width="100" height="50" as="geometry" />
        </mxCell>
        <mxCell id="yxUs6iewgmaAqQAanhQ5-39" value="&lt;u&gt;Name&lt;/u&gt;" style="ellipse;whiteSpace=wrap;html=1;" parent="1" vertex="1">
          <mxGeometry x="824" width="80" height="40" as="geometry" />
        </mxCell>
        <mxCell id="yxUs6iewgmaAqQAanhQ5-40" value="" style="endArrow=none;html=1;rounded=0;entryX=0.5;entryY=1;entryDx=0;entryDy=0;exitX=0.5;exitY=0;exitDx=0;exitDy=0;" parent="1" source="yxUs6iewgmaAqQAanhQ5-38" target="yxUs6iewgmaAqQAanhQ5-39" edge="1">
          <mxGeometry width="50" height="50" relative="1" as="geometry">
            <mxPoint x="654" y="60" as="sourcePoint" />
            <mxPoint x="704" y="10" as="targetPoint" />
          </mxGeometry>
        </mxCell>
        <mxCell id="yxUs6iewgmaAqQAanhQ5-42" value="Review" style="rounded=0;whiteSpace=wrap;html=1;" parent="1" vertex="1">
          <mxGeometry x="194.5" y="458.75" width="100" height="50" as="geometry" />
        </mxCell>
        <mxCell id="yxUs6iewgmaAqQAanhQ5-43" value="Classification" style="ellipse;whiteSpace=wrap;html=1;" parent="1" vertex="1">
          <mxGeometry x="84.5" y="364" width="80" height="40" as="geometry" />
        </mxCell>
        <mxCell id="yxUs6iewgmaAqQAanhQ5-45" value="0 to 10" style="rounded=0;whiteSpace=wrap;html=1;dashed=1;" parent="1" vertex="1">
          <mxGeometry x="173.25" y="319" width="65.5" height="30" as="geometry" />
        </mxCell>
        <mxCell id="yxUs6iewgmaAqQAanhQ5-46" value="Title" style="ellipse;whiteSpace=wrap;html=1;" parent="1" vertex="1">
          <mxGeometry x="94.5" y="465.75" width="60" height="36" as="geometry" />
        </mxCell>
        <mxCell id="yxUs6iewgmaAqQAanhQ5-47" value="Description" style="ellipse;whiteSpace=wrap;html=1;" parent="1" vertex="1">
          <mxGeometry x="89.5" y="507.75" width="70" height="40" as="geometry" />
        </mxCell>
        <mxCell id="yxUs6iewgmaAqQAanhQ5-48" value="Created_at" style="ellipse;whiteSpace=wrap;html=1;" parent="1" vertex="1">
          <mxGeometry x="84.5" y="428.75" width="80" height="30" as="geometry" />
        </mxCell>
        <mxCell id="yxUs6iewgmaAqQAanhQ5-50" value="" style="endArrow=none;html=1;rounded=0;exitX=1;exitY=0.5;exitDx=0;exitDy=0;entryX=0;entryY=0.5;entryDx=0;entryDy=0;" parent="1" source="yxUs6iewgmaAqQAanhQ5-46" target="yxUs6iewgmaAqQAanhQ5-42" edge="1">
          <mxGeometry width="50" height="50" relative="1" as="geometry">
            <mxPoint x="204.5" y="608.75" as="sourcePoint" />
            <mxPoint x="254.5" y="558.75" as="targetPoint" />
          </mxGeometry>
        </mxCell>
        <mxCell id="yxUs6iewgmaAqQAanhQ5-54" value="" style="endArrow=none;html=1;rounded=0;entryX=1;entryY=1;entryDx=0;entryDy=0;exitX=0;exitY=0.25;exitDx=0;exitDy=0;" parent="1" source="yxUs6iewgmaAqQAanhQ5-42" target="yxUs6iewgmaAqQAanhQ5-48" edge="1">
          <mxGeometry width="50" height="50" relative="1" as="geometry">
            <mxPoint x="194.5" y="408.75" as="sourcePoint" />
            <mxPoint x="-25.5" y="343.75" as="targetPoint" />
          </mxGeometry>
        </mxCell>
        <mxCell id="yxUs6iewgmaAqQAanhQ5-55" value="" style="endArrow=none;html=1;rounded=0;entryX=1;entryY=0.5;entryDx=0;entryDy=0;exitX=0;exitY=1;exitDx=0;exitDy=0;" parent="1" source="yxUs6iewgmaAqQAanhQ5-42" target="yxUs6iewgmaAqQAanhQ5-47" edge="1">
          <mxGeometry width="50" height="50" relative="1" as="geometry">
            <mxPoint x="204.5" y="468.75" as="sourcePoint" />
            <mxPoint x="174.5" y="453.75" as="targetPoint" />
          </mxGeometry>
        </mxCell>
        <mxCell id="yxUs6iewgmaAqQAanhQ5-56" value="" style="endArrow=none;html=1;rounded=0;exitX=1;exitY=1;exitDx=0;exitDy=0;entryX=0;entryY=0;entryDx=0;entryDy=0;" parent="1" source="yxUs6iewgmaAqQAanhQ5-43" target="yxUs6iewgmaAqQAanhQ5-42" edge="1">
          <mxGeometry width="50" height="50" relative="1" as="geometry">
            <mxPoint x="-129.5" y="463.75" as="sourcePoint" />
            <mxPoint x="-20.5" y="480.25" as="targetPoint" />
          </mxGeometry>
        </mxCell>
        <mxCell id="yxUs6iewgmaAqQAanhQ5-59" value="Person" style="rounded=0;whiteSpace=wrap;html=1;" parent="1" vertex="1">
          <mxGeometry x="949" y="319" width="100" height="50" as="geometry" />
        </mxCell>
        <mxCell id="yxUs6iewgmaAqQAanhQ5-60" value="&lt;u&gt;Identifier&lt;/u&gt;" style="ellipse;whiteSpace=wrap;html=1;" parent="1" vertex="1">
          <mxGeometry x="939" y="239" width="80" height="40" as="geometry" />
        </mxCell>
        <mxCell id="yxUs6iewgmaAqQAanhQ5-61" value="Name" style="ellipse;whiteSpace=wrap;html=1;" parent="1" vertex="1">
          <mxGeometry x="1059" y="265" width="60" height="40" as="geometry" />
        </mxCell>
        <mxCell id="yxUs6iewgmaAqQAanhQ5-62" value="Biography" style="ellipse;whiteSpace=wrap;html=1;" parent="1" vertex="1">
          <mxGeometry x="1099" y="324" width="70" height="40" as="geometry" />
        </mxCell>
        <mxCell id="yxUs6iewgmaAqQAanhQ5-65" value="Birth date" style="ellipse;whiteSpace=wrap;html=1;" parent="1" vertex="1">
          <mxGeometry x="1029" y="409" width="70" height="40" as="geometry" />
        </mxCell>
        <mxCell id="yxUs6iewgmaAqQAanhQ5-66" value="Photo" style="ellipse;whiteSpace=wrap;html=1;" parent="1" vertex="1">
          <mxGeometry x="939" y="414" width="60" height="30" as="geometry" />
        </mxCell>
        <mxCell id="yxUs6iewgmaAqQAanhQ5-67" value="" style="endArrow=none;html=1;rounded=0;exitX=0.5;exitY=1;exitDx=0;exitDy=0;entryX=0.317;entryY=-0.004;entryDx=0;entryDy=0;entryPerimeter=0;" parent="1" source="yxUs6iewgmaAqQAanhQ5-60" target="yxUs6iewgmaAqQAanhQ5-59" edge="1">
          <mxGeometry width="50" height="50" relative="1" as="geometry">
            <mxPoint x="1099" y="429" as="sourcePoint" />
            <mxPoint x="979" y="309" as="targetPoint" />
          </mxGeometry>
        </mxCell>
        <mxCell id="yxUs6iewgmaAqQAanhQ5-150" style="edgeStyle=orthogonalEdgeStyle;rounded=0;orthogonalLoop=1;jettySize=auto;html=1;entryX=0.5;entryY=1;entryDx=0;entryDy=0;endArrow=none;endFill=0;" parent="1" source="yxUs6iewgmaAqQAanhQ5-74" target="yxUs6iewgmaAqQAanhQ5-147" edge="1">
          <mxGeometry relative="1" as="geometry">
            <Array as="points">
              <mxPoint x="230" y="668" />
              <mxPoint x="213" y="668" />
            </Array>
          </mxGeometry>
        </mxCell>
        <mxCell id="yxUs6iewgmaAqQAanhQ5-74" value="User" style="rounded=0;whiteSpace=wrap;html=1;" parent="1" vertex="1">
          <mxGeometry x="194.5" y="695" width="100" height="50" as="geometry" />
        </mxCell>
        <mxCell id="yxUs6iewgmaAqQAanhQ5-75" value="&lt;u&gt;Identifier&lt;/u&gt;" style="ellipse;whiteSpace=wrap;html=1;" parent="1" vertex="1">
          <mxGeometry x="141" y="791" width="80" height="40" as="geometry" />
        </mxCell>
        <mxCell id="yxUs6iewgmaAqQAanhQ5-76" value="Birth date" style="ellipse;whiteSpace=wrap;html=1;" parent="1" vertex="1">
          <mxGeometry x="290" y="791" width="80" height="40" as="geometry" />
        </mxCell>
        <mxCell id="yxUs6iewgmaAqQAanhQ5-77" value="Password" style="ellipse;whiteSpace=wrap;html=1;" parent="1" vertex="1">
          <mxGeometry x="56" y="751" width="80" height="40" as="geometry" />
        </mxCell>
        <mxCell id="yxUs6iewgmaAqQAanhQ5-78" value="Created_at" style="ellipse;whiteSpace=wrap;html=1;" parent="1" vertex="1">
          <mxGeometry x="351" y="761" width="80" height="40" as="geometry" />
        </mxCell>
        <mxCell id="yxUs6iewgmaAqQAanhQ5-79" value="" style="endArrow=none;html=1;rounded=0;exitX=0;exitY=0;exitDx=0;exitDy=0;entryX=1;entryY=1;entryDx=0;entryDy=0;" parent="1" source="yxUs6iewgmaAqQAanhQ5-78" target="yxUs6iewgmaAqQAanhQ5-74" edge="1">
          <mxGeometry width="50" height="50" relative="1" as="geometry">
            <mxPoint x="331" y="731" as="sourcePoint" />
            <mxPoint x="381" y="681" as="targetPoint" />
          </mxGeometry>
        </mxCell>
        <mxCell id="yxUs6iewgmaAqQAanhQ5-80" value="" style="endArrow=none;html=1;rounded=0;exitX=0.5;exitY=0;exitDx=0;exitDy=0;entryX=0.75;entryY=1;entryDx=0;entryDy=0;" parent="1" source="yxUs6iewgmaAqQAanhQ5-76" target="yxUs6iewgmaAqQAanhQ5-74" edge="1">
          <mxGeometry width="50" height="50" relative="1" as="geometry">
            <mxPoint x="372.5" y="777" as="sourcePoint" />
            <mxPoint x="303.5" y="751" as="targetPoint" />
          </mxGeometry>
        </mxCell>
        <mxCell id="yxUs6iewgmaAqQAanhQ5-81" value="" style="endArrow=none;html=1;rounded=0;entryX=0.25;entryY=1;entryDx=0;entryDy=0;exitX=0.746;exitY=0.035;exitDx=0;exitDy=0;exitPerimeter=0;" parent="1" source="yxUs6iewgmaAqQAanhQ5-75" target="yxUs6iewgmaAqQAanhQ5-74" edge="1">
          <mxGeometry width="50" height="50" relative="1" as="geometry">
            <mxPoint x="203.5" y="791" as="sourcePoint" />
            <mxPoint x="313.5" y="761" as="targetPoint" />
          </mxGeometry>
        </mxCell>
        <mxCell id="yxUs6iewgmaAqQAanhQ5-82" value="" style="endArrow=none;html=1;rounded=0;exitX=0;exitY=1;exitDx=0;exitDy=0;entryX=1;entryY=0;entryDx=0;entryDy=0;" parent="1" source="yxUs6iewgmaAqQAanhQ5-74" target="yxUs6iewgmaAqQAanhQ5-77" edge="1">
          <mxGeometry width="50" height="50" relative="1" as="geometry">
            <mxPoint x="392.5" y="797" as="sourcePoint" />
            <mxPoint x="323.5" y="771" as="targetPoint" />
          </mxGeometry>
        </mxCell>
        <mxCell id="yxUs6iewgmaAqQAanhQ5-86" style="edgeStyle=orthogonalEdgeStyle;rounded=0;orthogonalLoop=1;jettySize=auto;html=1;exitX=0;exitY=0.5;exitDx=0;exitDy=0;entryX=1;entryY=0.5;entryDx=0;entryDy=0;endArrow=none;endFill=0;" parent="1" source="yxUs6iewgmaAqQAanhQ5-83" target="yxUs6iewgmaAqQAanhQ5-1" edge="1">
          <mxGeometry relative="1" as="geometry" />
        </mxCell>
        <mxCell id="yxUs6iewgmaAqQAanhQ5-87" style="edgeStyle=orthogonalEdgeStyle;rounded=0;orthogonalLoop=1;jettySize=auto;html=1;exitX=1;exitY=0.5;exitDx=0;exitDy=0;entryX=0;entryY=0.5;entryDx=0;entryDy=0;endArrow=none;endFill=0;" parent="1" source="yxUs6iewgmaAqQAanhQ5-83" target="yxUs6iewgmaAqQAanhQ5-38" edge="1">
          <mxGeometry relative="1" as="geometry" />
        </mxCell>
        <mxCell id="yxUs6iewgmaAqQAanhQ5-83" value="" style="rhombus;whiteSpace=wrap;html=1;" parent="1" vertex="1">
          <mxGeometry x="669" y="155" width="100" height="40" as="geometry" />
        </mxCell>
        <mxCell id="yxUs6iewgmaAqQAanhQ5-84" value="Categorized by" style="text;html=1;align=center;verticalAlign=middle;whiteSpace=wrap;rounded=0;" parent="1" vertex="1">
          <mxGeometry x="684" y="160.5" width="70" height="35.5" as="geometry" />
        </mxCell>
        <mxCell id="yxUs6iewgmaAqQAanhQ5-88" value="N" style="text;html=1;align=center;verticalAlign=middle;resizable=0;points=[];autosize=1;strokeColor=none;fillColor=none;" parent="1" vertex="1">
          <mxGeometry x="589" y="150" width="30" height="30" as="geometry" />
        </mxCell>
        <mxCell id="yxUs6iewgmaAqQAanhQ5-89" value="M" style="text;html=1;align=center;verticalAlign=middle;resizable=0;points=[];autosize=1;strokeColor=none;fillColor=none;" parent="1" vertex="1">
          <mxGeometry x="784" y="95" width="30" height="30" as="geometry" />
        </mxCell>
        <mxCell id="yxUs6iewgmaAqQAanhQ5-90" value="Watchlist" style="rounded=0;whiteSpace=wrap;html=1;" parent="1" vertex="1">
          <mxGeometry x="-111" y="439" width="100" height="50" as="geometry" />
        </mxCell>
        <mxCell id="yxUs6iewgmaAqQAanhQ5-91" value="Title" style="ellipse;whiteSpace=wrap;html=1;" parent="1" vertex="1">
          <mxGeometry x="-120" y="530.25" width="80" height="40" as="geometry" />
        </mxCell>
        <mxCell id="yxUs6iewgmaAqQAanhQ5-92" value="Visibility" style="ellipse;whiteSpace=wrap;html=1;" parent="1" vertex="1">
          <mxGeometry x="-230" y="428.75" width="80" height="40" as="geometry" />
        </mxCell>
        <mxCell id="yxUs6iewgmaAqQAanhQ5-93" value="0 - private&lt;div&gt;1 - public&lt;/div&gt;" style="rounded=0;whiteSpace=wrap;html=1;dashed=1;" parent="1" vertex="1">
          <mxGeometry x="-300" y="501.75" width="90" height="46" as="geometry" />
        </mxCell>
        <mxCell id="yxUs6iewgmaAqQAanhQ5-94" value="" style="endArrow=none;dashed=1;html=1;dashPattern=1 3;strokeWidth=2;rounded=0;exitX=0;exitY=1;exitDx=0;exitDy=0;entryX=0.5;entryY=0;entryDx=0;entryDy=0;" parent="1" source="yxUs6iewgmaAqQAanhQ5-92" target="yxUs6iewgmaAqQAanhQ5-93" edge="1">
          <mxGeometry width="50" height="50" relative="1" as="geometry">
            <mxPoint x="-266" y="468.75" as="sourcePoint" />
            <mxPoint x="-261" y="482.75" as="targetPoint" />
          </mxGeometry>
        </mxCell>
        <mxCell id="yxUs6iewgmaAqQAanhQ5-101" value="Composed&lt;div&gt;by&lt;/div&gt;" style="rhombus;whiteSpace=wrap;html=1;rotation=15;" parent="1" vertex="1">
          <mxGeometry x="708.52" y="235.17" width="100" height="55.59" as="geometry" />
        </mxCell>
        <mxCell id="yxUs6iewgmaAqQAanhQ5-103" value="" style="endArrow=none;html=1;rounded=0;exitX=1;exitY=1;exitDx=0;exitDy=0;entryX=0;entryY=0.5;entryDx=0;entryDy=0;" parent="1" source="yxUs6iewgmaAqQAanhQ5-1" target="yxUs6iewgmaAqQAanhQ5-101" edge="1">
          <mxGeometry width="50" height="50" relative="1" as="geometry">
            <mxPoint x="609" y="275" as="sourcePoint" />
            <mxPoint x="659" y="225" as="targetPoint" />
          </mxGeometry>
        </mxCell>
        <mxCell id="yxUs6iewgmaAqQAanhQ5-104" value="" style="endArrow=none;html=1;rounded=0;entryX=0;entryY=0.5;entryDx=0;entryDy=0;exitX=1;exitY=0.5;exitDx=0;exitDy=0;" parent="1" source="yxUs6iewgmaAqQAanhQ5-101" target="yxUs6iewgmaAqQAanhQ5-59" edge="1">
          <mxGeometry width="50" height="50" relative="1" as="geometry">
            <mxPoint x="899" y="355" as="sourcePoint" />
            <mxPoint x="949" y="305" as="targetPoint" />
          </mxGeometry>
        </mxCell>
        <mxCell id="yxUs6iewgmaAqQAanhQ5-105" value="Role" style="ellipse;whiteSpace=wrap;html=1;" parent="1" vertex="1">
          <mxGeometry x="789" y="196" width="80" height="40" as="geometry" />
        </mxCell>
        <mxCell id="yxUs6iewgmaAqQAanhQ5-106" value="Producer, Writer, Actor, Actress, Director" style="rounded=0;whiteSpace=wrap;html=1;dashed=1;" parent="1" vertex="1">
          <mxGeometry x="919" y="165" width="120" height="56" as="geometry" />
        </mxCell>
        <mxCell id="yxUs6iewgmaAqQAanhQ5-107" value="" style="endArrow=none;dashed=1;html=1;dashPattern=1 3;strokeWidth=2;rounded=0;entryX=1;entryY=0.5;entryDx=0;entryDy=0;exitX=0;exitY=0.5;exitDx=0;exitDy=0;" parent="1" source="yxUs6iewgmaAqQAanhQ5-106" target="yxUs6iewgmaAqQAanhQ5-105" edge="1">
          <mxGeometry width="50" height="50" relative="1" as="geometry">
            <mxPoint x="744" y="385" as="sourcePoint" />
            <mxPoint x="704" y="255" as="targetPoint" />
          </mxGeometry>
        </mxCell>
        <mxCell id="yxUs6iewgmaAqQAanhQ5-112" value="Number" style="ellipse;whiteSpace=wrap;html=1;" parent="1" vertex="1">
          <mxGeometry x="454.5" y="705" width="80" height="30" as="geometry" />
        </mxCell>
        <mxCell id="yxUs6iewgmaAqQAanhQ5-113" value="Synopsis" style="ellipse;whiteSpace=wrap;html=1;" parent="1" vertex="1">
          <mxGeometry x="679" y="761" width="80" height="30" as="geometry" />
        </mxCell>
        <mxCell id="yxUs6iewgmaAqQAanhQ5-114" value="Photo" style="ellipse;whiteSpace=wrap;html=1;" parent="1" vertex="1">
          <mxGeometry x="462" y="540.25" width="80" height="30" as="geometry" />
        </mxCell>
        <mxCell id="yxUs6iewgmaAqQAanhQ5-115" value="N" style="text;html=1;align=center;verticalAlign=middle;resizable=0;points=[];autosize=1;strokeColor=none;fillColor=none;rotation=30;" parent="1" vertex="1">
          <mxGeometry x="574" y="203" width="30" height="30" as="geometry" />
        </mxCell>
        <mxCell id="yxUs6iewgmaAqQAanhQ5-116" value="M" style="text;html=1;align=center;verticalAlign=middle;resizable=0;points=[];autosize=1;strokeColor=none;fillColor=none;rotation=30;" parent="1" vertex="1">
          <mxGeometry x="919" y="309" width="30" height="30" as="geometry" />
        </mxCell>
        <mxCell id="yxUs6iewgmaAqQAanhQ5-117" value="Has" style="rhombus;whiteSpace=wrap;html=1;" parent="1" vertex="1">
          <mxGeometry x="584" y="427" width="40" height="50" as="geometry" />
        </mxCell>
        <mxCell id="yxUs6iewgmaAqQAanhQ5-119" style="edgeStyle=orthogonalEdgeStyle;rounded=0;orthogonalLoop=1;jettySize=auto;html=1;endArrow=none;endFill=0;shape=link;exitX=0.5;exitY=1;exitDx=0;exitDy=0;entryX=0.5;entryY=0;entryDx=0;entryDy=0;" parent="1" source="yxUs6iewgmaAqQAanhQ5-117" target="yxUs6iewgmaAqQAanhQ5-13" edge="1">
          <mxGeometry relative="1" as="geometry">
            <mxPoint x="604" y="465" as="sourcePoint" />
            <mxPoint x="604" y="515" as="targetPoint" />
          </mxGeometry>
        </mxCell>
        <mxCell id="yxUs6iewgmaAqQAanhQ5-120" value="1" style="text;html=1;align=center;verticalAlign=middle;resizable=0;points=[];autosize=1;strokeColor=none;fillColor=none;" parent="1" vertex="1">
          <mxGeometry x="580.5" y="379" width="30" height="30" as="geometry" />
        </mxCell>
        <mxCell id="yxUs6iewgmaAqQAanhQ5-121" value="N" style="text;html=1;align=center;verticalAlign=middle;resizable=0;points=[];autosize=1;strokeColor=none;fillColor=none;" parent="1" vertex="1">
          <mxGeometry x="599" y="493.75" width="30" height="30" as="geometry" />
        </mxCell>
        <mxCell id="yxUs6iewgmaAqQAanhQ5-124" value="" style="endArrow=none;html=1;rounded=0;exitX=1;exitY=0.5;exitDx=0;exitDy=0;entryX=0;entryY=0.5;entryDx=0;entryDy=0;" parent="1" source="yxUs6iewgmaAqQAanhQ5-114" target="yxUs6iewgmaAqQAanhQ5-13" edge="1">
          <mxGeometry width="50" height="50" relative="1" as="geometry">
            <mxPoint x="509" y="615" as="sourcePoint" />
            <mxPoint x="559" y="565" as="targetPoint" />
          </mxGeometry>
        </mxCell>
        <mxCell id="yxUs6iewgmaAqQAanhQ5-125" value="" style="endArrow=none;html=1;rounded=0;exitX=1;exitY=1;exitDx=0;exitDy=0;entryX=0;entryY=0.25;entryDx=0;entryDy=0;" parent="1" source="yxUs6iewgmaAqQAanhQ5-37" target="yxUs6iewgmaAqQAanhQ5-13" edge="1">
          <mxGeometry width="50" height="50" relative="1" as="geometry">
            <mxPoint x="545" y="545" as="sourcePoint" />
            <mxPoint x="574" y="550" as="targetPoint" />
          </mxGeometry>
        </mxCell>
        <mxCell id="yxUs6iewgmaAqQAanhQ5-127" style="edgeStyle=orthogonalEdgeStyle;rounded=0;orthogonalLoop=1;jettySize=auto;html=1;entryX=0.5;entryY=1;entryDx=0;entryDy=0;shape=link;" parent="1" source="yxUs6iewgmaAqQAanhQ5-126" target="yxUs6iewgmaAqQAanhQ5-13" edge="1">
          <mxGeometry relative="1" as="geometry" />
        </mxCell>
        <mxCell id="yxUs6iewgmaAqQAanhQ5-126" value="Has" style="rhombus;whiteSpace=wrap;html=1;" parent="1" vertex="1">
          <mxGeometry x="584" y="605.25" width="40" height="50" as="geometry" />
        </mxCell>
        <mxCell id="yxUs6iewgmaAqQAanhQ5-129" value="1" style="text;html=1;align=center;verticalAlign=middle;resizable=0;points=[];autosize=1;strokeColor=none;fillColor=none;" parent="1" vertex="1">
          <mxGeometry x="604" y="554.75" width="30" height="30" as="geometry" />
        </mxCell>
        <mxCell id="yxUs6iewgmaAqQAanhQ5-130" value="N" style="text;html=1;align=center;verticalAlign=middle;resizable=0;points=[];autosize=1;strokeColor=none;fillColor=none;" parent="1" vertex="1">
          <mxGeometry x="604" y="675" width="30" height="30" as="geometry" />
        </mxCell>
        <mxCell id="yxUs6iewgmaAqQAanhQ5-132" value="" style="endArrow=none;html=1;rounded=0;exitX=0;exitY=1;exitDx=0;exitDy=0;entryX=1;entryY=0;entryDx=0;entryDy=0;" parent="1" source="yxUs6iewgmaAqQAanhQ5-61" target="yxUs6iewgmaAqQAanhQ5-59" edge="1">
          <mxGeometry width="50" height="50" relative="1" as="geometry">
            <mxPoint x="989" y="289" as="sourcePoint" />
            <mxPoint x="991" y="329" as="targetPoint" />
          </mxGeometry>
        </mxCell>
        <mxCell id="yxUs6iewgmaAqQAanhQ5-133" value="" style="endArrow=none;html=1;rounded=0;exitX=0;exitY=0.5;exitDx=0;exitDy=0;entryX=1;entryY=0.5;entryDx=0;entryDy=0;" parent="1" source="yxUs6iewgmaAqQAanhQ5-62" target="yxUs6iewgmaAqQAanhQ5-59" edge="1">
          <mxGeometry width="50" height="50" relative="1" as="geometry">
            <mxPoint x="1078" y="309" as="sourcePoint" />
            <mxPoint x="1059" y="329" as="targetPoint" />
          </mxGeometry>
        </mxCell>
        <mxCell id="yxUs6iewgmaAqQAanhQ5-134" value="" style="endArrow=none;html=1;rounded=0;exitX=0.5;exitY=0;exitDx=0;exitDy=0;entryX=0.75;entryY=1;entryDx=0;entryDy=0;" parent="1" source="yxUs6iewgmaAqQAanhQ5-65" target="yxUs6iewgmaAqQAanhQ5-59" edge="1">
          <mxGeometry width="50" height="50" relative="1" as="geometry">
            <mxPoint x="1109" y="354" as="sourcePoint" />
            <mxPoint x="1059" y="354" as="targetPoint" />
          </mxGeometry>
        </mxCell>
        <mxCell id="yxUs6iewgmaAqQAanhQ5-135" value="" style="endArrow=none;html=1;rounded=0;exitX=0.5;exitY=0;exitDx=0;exitDy=0;entryX=0.25;entryY=1;entryDx=0;entryDy=0;" parent="1" source="yxUs6iewgmaAqQAanhQ5-66" target="yxUs6iewgmaAqQAanhQ5-59" edge="1">
          <mxGeometry width="50" height="50" relative="1" as="geometry">
            <mxPoint x="1074" y="419" as="sourcePoint" />
            <mxPoint x="1034" y="379" as="targetPoint" />
          </mxGeometry>
        </mxCell>
        <mxCell id="yxUs6iewgmaAqQAanhQ5-136" value="" style="endArrow=none;html=1;rounded=0;exitX=1;exitY=0.5;exitDx=0;exitDy=0;entryX=0;entryY=0.5;entryDx=0;entryDy=0;" parent="1" source="yxUs6iewgmaAqQAanhQ5-112" target="yxUs6iewgmaAqQAanhQ5-14" edge="1">
          <mxGeometry width="50" height="50" relative="1" as="geometry">
            <mxPoint x="552" y="565" as="sourcePoint" />
            <mxPoint x="574" y="550" as="targetPoint" />
          </mxGeometry>
        </mxCell>
        <mxCell id="yxUs6iewgmaAqQAanhQ5-137" value="" style="endArrow=none;html=1;rounded=0;exitX=0;exitY=1;exitDx=0;exitDy=0;entryX=1;entryY=0.25;entryDx=0;entryDy=0;" parent="1" source="yxUs6iewgmaAqQAanhQ5-35" target="yxUs6iewgmaAqQAanhQ5-14" edge="1">
          <mxGeometry width="50" height="50" relative="1" as="geometry">
            <mxPoint x="545" y="730" as="sourcePoint" />
            <mxPoint x="574" y="735" as="targetPoint" />
          </mxGeometry>
        </mxCell>
        <mxCell id="yxUs6iewgmaAqQAanhQ5-138" value="" style="endArrow=none;html=1;rounded=0;exitX=0;exitY=0;exitDx=0;exitDy=0;entryX=1;entryY=1;entryDx=0;entryDy=0;" parent="1" source="yxUs6iewgmaAqQAanhQ5-113" target="yxUs6iewgmaAqQAanhQ5-14" edge="1">
          <mxGeometry width="50" height="50" relative="1" as="geometry">
            <mxPoint x="708" y="713" as="sourcePoint" />
            <mxPoint x="654" y="725" as="targetPoint" />
          </mxGeometry>
        </mxCell>
        <mxCell id="yxUs6iewgmaAqQAanhQ5-139" value="Release date" style="ellipse;whiteSpace=wrap;html=1;" parent="1" vertex="1">
          <mxGeometry x="674" y="549.75" width="90" height="35" as="geometry" />
        </mxCell>
        <mxCell id="yxUs6iewgmaAqQAanhQ5-140" value="" style="endArrow=none;html=1;rounded=0;exitX=0;exitY=1;exitDx=0;exitDy=0;entryX=1;entryY=0.25;entryDx=0;entryDy=0;" parent="1" source="yxUs6iewgmaAqQAanhQ5-36" target="yxUs6iewgmaAqQAanhQ5-13" edge="1">
          <mxGeometry width="50" height="50" relative="1" as="geometry">
            <mxPoint x="547" y="525" as="sourcePoint" />
            <mxPoint x="574" y="540" as="targetPoint" />
          </mxGeometry>
        </mxCell>
        <mxCell id="yxUs6iewgmaAqQAanhQ5-141" value="" style="endArrow=none;html=1;rounded=0;exitX=0;exitY=0.5;exitDx=0;exitDy=0;entryX=1;entryY=0.75;entryDx=0;entryDy=0;" parent="1" source="yxUs6iewgmaAqQAanhQ5-139" target="yxUs6iewgmaAqQAanhQ5-13" edge="1">
          <mxGeometry width="50" height="50" relative="1" as="geometry">
            <mxPoint x="696" y="525" as="sourcePoint" />
            <mxPoint x="654" y="540" as="targetPoint" />
          </mxGeometry>
        </mxCell>
        <mxCell id="yxUs6iewgmaAqQAanhQ5-142" value="About" style="rhombus;whiteSpace=wrap;html=1;rotation=45;" parent="1" vertex="1">
          <mxGeometry x="342.7" y="293.00000000000006" width="54.3" height="73.2" as="geometry" />
        </mxCell>
        <mxCell id="yxUs6iewgmaAqQAanhQ5-143" value="" style="endArrow=none;html=1;rounded=0;entryX=0.399;entryY=0.994;entryDx=0;entryDy=0;exitX=0.5;exitY=0;exitDx=0;exitDy=0;entryPerimeter=0;" parent="1" source="yxUs6iewgmaAqQAanhQ5-142" target="yxUs6iewgmaAqQAanhQ5-1" edge="1">
          <mxGeometry width="50" height="50" relative="1" as="geometry">
            <mxPoint x="369" y="325" as="sourcePoint" />
            <mxPoint x="399" y="275" as="targetPoint" />
          </mxGeometry>
        </mxCell>
        <mxCell id="yxUs6iewgmaAqQAanhQ5-144" value="" style="endArrow=none;html=1;rounded=0;entryX=0.5;entryY=1;entryDx=0;entryDy=0;exitX=0.75;exitY=0;exitDx=0;exitDy=0;shape=link;" parent="1" source="yxUs6iewgmaAqQAanhQ5-42" target="yxUs6iewgmaAqQAanhQ5-142" edge="1">
          <mxGeometry width="50" height="50" relative="1" as="geometry">
            <mxPoint x="390" y="307" as="sourcePoint" />
            <mxPoint x="509" y="215" as="targetPoint" />
          </mxGeometry>
        </mxCell>
        <mxCell id="yxUs6iewgmaAqQAanhQ5-145" value="1" style="text;html=1;align=center;verticalAlign=middle;resizable=0;points=[];autosize=1;strokeColor=none;fillColor=none;rotation=45;" parent="1" vertex="1">
          <mxGeometry x="499" y="205.17" width="30" height="30" as="geometry" />
        </mxCell>
        <mxCell id="yxUs6iewgmaAqQAanhQ5-146" value="N" style="text;html=1;align=center;verticalAlign=middle;resizable=0;points=[];autosize=1;strokeColor=none;fillColor=none;rotation=45;" parent="1" vertex="1">
          <mxGeometry x="244" y="427" width="30" height="30" as="geometry" />
        </mxCell>
        <mxCell id="yxUs6iewgmaAqQAanhQ5-148" style="edgeStyle=orthogonalEdgeStyle;rounded=0;orthogonalLoop=1;jettySize=auto;html=1;entryX=0.25;entryY=1;entryDx=0;entryDy=0;shape=link;" parent="1" source="yxUs6iewgmaAqQAanhQ5-147" target="yxUs6iewgmaAqQAanhQ5-42" edge="1">
          <mxGeometry relative="1" as="geometry" />
        </mxCell>
        <mxCell id="yxUs6iewgmaAqQAanhQ5-147" value="Writes" style="rhombus;whiteSpace=wrap;html=1;" parent="1" vertex="1">
          <mxGeometry x="186" y="570.25" width="53" height="70" as="geometry" />
        </mxCell>
        <mxCell id="yxUs6iewgmaAqQAanhQ5-149" value="N" style="text;html=1;align=center;verticalAlign=middle;resizable=0;points=[];autosize=1;strokeColor=none;fillColor=none;" parent="1" vertex="1">
          <mxGeometry x="191" y="501.75" width="30" height="30" as="geometry" />
        </mxCell>
        <mxCell id="yxUs6iewgmaAqQAanhQ5-151" value="1" style="text;html=1;align=center;verticalAlign=middle;resizable=0;points=[];autosize=1;strokeColor=none;fillColor=none;" parent="1" vertex="1">
          <mxGeometry x="208.75" y="665" width="30" height="30" as="geometry" />
        </mxCell>
        <mxCell id="yxUs6iewgmaAqQAanhQ5-158" value="disjoint" style="text;html=1;align=center;verticalAlign=middle;resizable=0;points=[];autosize=1;strokeColor=none;fillColor=none;" parent="1" vertex="1">
          <mxGeometry x="539" y="263" width="60" height="30" as="geometry" />
        </mxCell>
        <mxCell id="yxUs6iewgmaAqQAanhQ5-161" value="Create" style="rhombus;whiteSpace=wrap;html=1;rotation=-45;" parent="1" vertex="1">
          <mxGeometry x="41.5" y="584.75" width="53" height="70" as="geometry" />
        </mxCell>
        <mxCell id="yxUs6iewgmaAqQAanhQ5-162" value="Contains" style="rhombus;whiteSpace=wrap;html=1;rotation=60;" parent="1" vertex="1">
          <mxGeometry x="89.5" y="279" width="53" height="84" as="geometry" />
        </mxCell>
        <mxCell id="yxUs6iewgmaAqQAanhQ5-163" value="" style="endArrow=none;html=1;rounded=0;entryX=0.102;entryY=1.008;entryDx=0;entryDy=0;entryPerimeter=0;exitX=0.5;exitY=0;exitDx=0;exitDy=0;" parent="1" source="yxUs6iewgmaAqQAanhQ5-162" target="yxUs6iewgmaAqQAanhQ5-1" edge="1">
          <mxGeometry width="50" height="50" relative="1" as="geometry">
            <mxPoint x="259" y="325" as="sourcePoint" />
            <mxPoint x="309" y="275" as="targetPoint" />
          </mxGeometry>
        </mxCell>
        <mxCell id="yxUs6iewgmaAqQAanhQ5-165" value="N" style="text;html=1;align=center;verticalAlign=middle;resizable=0;points=[];autosize=1;strokeColor=none;fillColor=none;rotation=45;" parent="1" vertex="1">
          <mxGeometry x="449" y="203" width="30" height="30" as="geometry" />
        </mxCell>
        <mxCell id="yxUs6iewgmaAqQAanhQ5-166" value="" style="endArrow=none;html=1;rounded=0;exitX=1;exitY=0;exitDx=0;exitDy=0;entryX=0.5;entryY=1;entryDx=0;entryDy=0;" parent="1" source="yxUs6iewgmaAqQAanhQ5-90" target="yxUs6iewgmaAqQAanhQ5-162" edge="1">
          <mxGeometry width="50" height="50" relative="1" as="geometry">
            <mxPoint x="-31" y="425" as="sourcePoint" />
            <mxPoint x="19" y="375" as="targetPoint" />
          </mxGeometry>
        </mxCell>
        <mxCell id="yxUs6iewgmaAqQAanhQ5-167" value="M" style="text;html=1;align=center;verticalAlign=middle;resizable=0;points=[];autosize=1;strokeColor=none;fillColor=none;rotation=30;" parent="1" vertex="1">
          <mxGeometry x="-30" y="409" width="30" height="30" as="geometry" />
        </mxCell>
        <mxCell id="yxUs6iewgmaAqQAanhQ5-168" value="" style="endArrow=none;html=1;rounded=0;exitX=1;exitY=0.5;exitDx=0;exitDy=0;entryX=0;entryY=0.25;entryDx=0;entryDy=0;" parent="1" source="yxUs6iewgmaAqQAanhQ5-92" target="yxUs6iewgmaAqQAanhQ5-90" edge="1">
          <mxGeometry width="50" height="50" relative="1" as="geometry">
            <mxPoint x="-151" y="485" as="sourcePoint" />
            <mxPoint x="-101" y="435" as="targetPoint" />
          </mxGeometry>
        </mxCell>
        <mxCell id="yxUs6iewgmaAqQAanhQ5-169" value="" style="endArrow=none;html=1;rounded=0;exitX=0.5;exitY=0;exitDx=0;exitDy=0;entryX=0.25;entryY=1;entryDx=0;entryDy=0;" parent="1" source="yxUs6iewgmaAqQAanhQ5-91" target="yxUs6iewgmaAqQAanhQ5-90" edge="1">
          <mxGeometry width="50" height="50" relative="1" as="geometry">
            <mxPoint x="-216" y="459" as="sourcePoint" />
            <mxPoint x="-131" y="462" as="targetPoint" />
          </mxGeometry>
        </mxCell>
        <mxCell id="yxUs6iewgmaAqQAanhQ5-170" value="" style="endArrow=none;html=1;rounded=0;exitX=0.5;exitY=0;exitDx=0;exitDy=0;entryX=1;entryY=1;entryDx=0;entryDy=0;shape=link;" parent="1" source="yxUs6iewgmaAqQAanhQ5-161" target="yxUs6iewgmaAqQAanhQ5-90" edge="1">
          <mxGeometry width="50" height="50" relative="1" as="geometry">
            <mxPoint x="-141" y="560" as="sourcePoint" />
            <mxPoint x="-106" y="500" as="targetPoint" />
          </mxGeometry>
        </mxCell>
        <mxCell id="yxUs6iewgmaAqQAanhQ5-171" value="" style="endArrow=none;html=1;rounded=0;exitX=0.5;exitY=1;exitDx=0;exitDy=0;entryX=0;entryY=0.25;entryDx=0;entryDy=0;" parent="1" source="yxUs6iewgmaAqQAanhQ5-161" target="yxUs6iewgmaAqQAanhQ5-74" edge="1">
          <mxGeometry width="50" height="50" relative="1" as="geometry">
            <mxPoint x="-141" y="560" as="sourcePoint" />
            <mxPoint x="-106" y="500" as="targetPoint" />
          </mxGeometry>
        </mxCell>
        <mxCell id="yxUs6iewgmaAqQAanhQ5-172" value="1" style="text;html=1;align=center;verticalAlign=middle;resizable=0;points=[];autosize=1;strokeColor=none;fillColor=none;rotation=-60;" parent="1" vertex="1">
          <mxGeometry x="159.5" y="695" width="30" height="30" as="geometry" />
        </mxCell>
        <mxCell id="yxUs6iewgmaAqQAanhQ5-173" value="N" style="text;html=1;align=center;verticalAlign=middle;resizable=0;points=[];autosize=1;strokeColor=none;fillColor=none;rotation=-35;" parent="1" vertex="1">
          <mxGeometry x="-11" y="477" width="30" height="30" as="geometry" />
        </mxCell>
        <mxCell id="yxUs6iewgmaAqQAanhQ5-174" value="" style="endArrow=none;html=1;rounded=0;entryX=0;entryY=1;entryDx=0;entryDy=0;exitX=0.5;exitY=0;exitDx=0;exitDy=0;" parent="1" source="yxUs6iewgmaAqQAanhQ5-101" target="yxUs6iewgmaAqQAanhQ5-105" edge="1">
          <mxGeometry width="50" height="50" relative="1" as="geometry">
            <mxPoint x="759" y="275" as="sourcePoint" />
            <mxPoint x="809" y="225" as="targetPoint" />
          </mxGeometry>
        </mxCell>
        <mxCell id="yxUs6iewgmaAqQAanhQ5-175" value="State" style="ellipse;whiteSpace=wrap;html=1;" parent="1" vertex="1">
          <mxGeometry x="679" y="319" width="80" height="40" as="geometry" />
        </mxCell>
        <mxCell id="yxUs6iewgmaAqQAanhQ5-176" value="Finish date" style="ellipse;whiteSpace=wrap;html=1;" parent="1" vertex="1">
          <mxGeometry x="679" y="388.75" width="80" height="40" as="geometry" />
        </mxCell>
        <mxCell id="yxUs6iewgmaAqQAanhQ5-177" value="" style="endArrow=none;html=1;rounded=0;entryX=0;entryY=0.5;entryDx=0;entryDy=0;exitX=1;exitY=1;exitDx=0;exitDy=0;" parent="1" source="yxUs6iewgmaAqQAanhQ5-16" target="yxUs6iewgmaAqQAanhQ5-176" edge="1">
          <mxGeometry width="50" height="50" relative="1" as="geometry">
            <mxPoint x="609" y="455" as="sourcePoint" />
            <mxPoint x="659" y="405" as="targetPoint" />
          </mxGeometry>
        </mxCell>
        <mxCell id="yxUs6iewgmaAqQAanhQ5-178" value="" style="endArrow=none;html=1;rounded=0;entryX=0;entryY=0.5;entryDx=0;entryDy=0;exitX=1;exitY=0.25;exitDx=0;exitDy=0;" parent="1" source="yxUs6iewgmaAqQAanhQ5-16" target="yxUs6iewgmaAqQAanhQ5-175" edge="1">
          <mxGeometry width="50" height="50" relative="1" as="geometry">
            <mxPoint x="654" y="395" as="sourcePoint" />
            <mxPoint x="689" y="419" as="targetPoint" />
          </mxGeometry>
        </mxCell>
        <mxCell id="yxUs6iewgmaAqQAanhQ5-179" value="Active, Cancelled, Finished" style="rounded=0;whiteSpace=wrap;html=1;dashed=1;" parent="1" vertex="1">
          <mxGeometry x="784" y="328" width="105" height="41" as="geometry" />
        </mxCell>
        <mxCell id="yxUs6iewgmaAqQAanhQ5-180" value="" style="endArrow=none;dashed=1;html=1;dashPattern=1 3;strokeWidth=2;rounded=0;entryX=1;entryY=0.5;entryDx=0;entryDy=0;exitX=0;exitY=0.5;exitDx=0;exitDy=0;" parent="1" source="yxUs6iewgmaAqQAanhQ5-179" target="yxUs6iewgmaAqQAanhQ5-175" edge="1">
          <mxGeometry width="50" height="50" relative="1" as="geometry">
            <mxPoint x="929" y="203" as="sourcePoint" />
            <mxPoint x="879" y="226" as="targetPoint" />
          </mxGeometry>
        </mxCell>
        <mxCell id="TFC6uVzWNUWIdAZeNRYc-1" value="&lt;u&gt;Email&lt;/u&gt;" style="ellipse;whiteSpace=wrap;html=1;" parent="1" vertex="1">
          <mxGeometry x="220" y="801" width="70" height="39" as="geometry" />
        </mxCell>
        <mxCell id="TFC6uVzWNUWIdAZeNRYc-3" value="" style="endArrow=none;html=1;rounded=0;exitX=0.5;exitY=0;exitDx=0;exitDy=0;entryX=0.5;entryY=1;entryDx=0;entryDy=0;" parent="1" source="TFC6uVzWNUWIdAZeNRYc-1" target="yxUs6iewgmaAqQAanhQ5-74" edge="1">
          <mxGeometry width="50" height="50" relative="1" as="geometry">
            <mxPoint x="340" y="801" as="sourcePoint" />
            <mxPoint x="280" y="755" as="targetPoint" />
          </mxGeometry>
        </mxCell>
        <mxCell id="yVP0wLzAeNazlcfr0_Lg-2" value="" style="endArrow=none;html=1;rounded=0;exitX=0.781;exitY=0.105;exitDx=0;exitDy=0;exitPerimeter=0;entryX=0;entryY=1;entryDx=0;entryDy=0;dashed=1;" parent="1" source="yxUs6iewgmaAqQAanhQ5-43" target="yxUs6iewgmaAqQAanhQ5-45" edge="1">
          <mxGeometry width="50" height="50" relative="1" as="geometry">
            <mxPoint x="140" y="390" as="sourcePoint" />
            <mxPoint x="190" y="340" as="targetPoint" />
          </mxGeometry>
        </mxCell>
        <mxCell id="yVP0wLzAeNazlcfr0_Lg-4" value="&lt;u&gt;Identifier&lt;/u&gt;" style="ellipse;whiteSpace=wrap;html=1;" parent="1" vertex="1">
          <mxGeometry x="172.5" y="363" width="80" height="40" as="geometry" />
        </mxCell>
        <mxCell id="yVP0wLzAeNazlcfr0_Lg-6" value="" style="endArrow=none;html=1;rounded=0;exitX=0.448;exitY=1.012;exitDx=0;exitDy=0;entryX=0.25;entryY=0;entryDx=0;entryDy=0;exitPerimeter=0;" parent="1" source="yVP0wLzAeNazlcfr0_Lg-4" target="yxUs6iewgmaAqQAanhQ5-42" edge="1">
          <mxGeometry width="50" height="50" relative="1" as="geometry">
            <mxPoint x="163" y="408" as="sourcePoint" />
            <mxPoint x="205" y="469" as="targetPoint" />
          </mxGeometry>
        </mxCell>
        <mxCell id="yVP0wLzAeNazlcfr0_Lg-8" style="edgeStyle=orthogonalEdgeStyle;rounded=0;orthogonalLoop=1;jettySize=auto;html=1;entryX=0.75;entryY=1;entryDx=0;entryDy=0;shape=link;" parent="1" source="yVP0wLzAeNazlcfr0_Lg-7" target="yxUs6iewgmaAqQAanhQ5-42" edge="1">
          <mxGeometry relative="1" as="geometry" />
        </mxCell>
        <mxCell id="yVP0wLzAeNazlcfr0_Lg-10" style="edgeStyle=orthogonalEdgeStyle;rounded=0;orthogonalLoop=1;jettySize=auto;html=1;entryX=0.75;entryY=0;entryDx=0;entryDy=0;endArrow=none;endFill=0;" parent="1" source="yVP0wLzAeNazlcfr0_Lg-7" target="yxUs6iewgmaAqQAanhQ5-74" edge="1">
          <mxGeometry relative="1" as="geometry" />
        </mxCell>
        <mxCell id="yVP0wLzAeNazlcfr0_Lg-7" value="Likes/&lt;div&gt;Dislikes&lt;/div&gt;" style="rhombus;whiteSpace=wrap;html=1;" parent="1" vertex="1">
          <mxGeometry x="244" y="570.25" width="53" height="70" as="geometry" />
        </mxCell>
        <mxCell id="yVP0wLzAeNazlcfr0_Lg-9" value="M" style="text;html=1;align=center;verticalAlign=middle;resizable=0;points=[];autosize=1;strokeColor=none;fillColor=none;" parent="1" vertex="1">
          <mxGeometry x="240" y="501.75" width="30" height="30" as="geometry" />
        </mxCell>
        <mxCell id="yVP0wLzAeNazlcfr0_Lg-11" value="N" style="text;html=1;align=center;verticalAlign=middle;resizable=0;points=[];autosize=1;strokeColor=none;fillColor=none;" parent="1" vertex="1">
          <mxGeometry x="265" y="668" width="30" height="30" as="geometry" />
        </mxCell>
        <mxCell id="IPK9nZ7_XC55cDKKyufw-1" value="Is Admin" style="ellipse;whiteSpace=wrap;html=1;" vertex="1" parent="1">
          <mxGeometry x="351" y="690" width="80" height="40" as="geometry" />
        </mxCell>
        <mxCell id="IPK9nZ7_XC55cDKKyufw-2" value="" style="endArrow=none;html=1;rounded=0;exitX=0;exitY=0.5;exitDx=0;exitDy=0;entryX=1;entryY=0.25;entryDx=0;entryDy=0;" edge="1" parent="1" source="IPK9nZ7_XC55cDKKyufw-1" target="yxUs6iewgmaAqQAanhQ5-74">
          <mxGeometry width="50" height="50" relative="1" as="geometry">
            <mxPoint x="373" y="777" as="sourcePoint" />
            <mxPoint x="305" y="755" as="targetPoint" />
          </mxGeometry>
        </mxCell>
      </root>
    </mxGraphModel>
  </diagram>
</mxfile>
